<svg xmlns="http://www.w3.org/2000/svg" viewBox="0 0 400 300" fill="none">
  <rect width="400" height="300" rx="16" fill="#0f172a"/>
  <rect x="40" y="40" width="320" height="180" rx="8" fill="#1e293b" stroke="#ea580c" stroke-width="2"/>
  <rect x="55" y="58" width="130" height="72" rx="4" fill="#ea580c" opacity="0.1" stroke="#ea580c" stroke-width="1.5"/>
  <rect x="210" y="58" width="130" height="72" rx="4" fill="#ea580c" opacity="0.08" stroke="#ea580c" stroke-width="1.5" stroke-dasharray="3 2"/>
  <text x="120" y="93" text-anchor="middle" fill="#fb923c" font-family="monospace" font-size="9">BM1372</text>
  <text x="120" y="108" text-anchor="middle" fill="#fb923c" font-family="monospace" font-size="8">ASIC #1</text>
  <text x="275" y="93" text-anchor="middle" fill="#fb923c" font-family="monospace" font-size="9">BM1372</text>
  <text x="275" y="108" text-anchor="middle" fill="#fb923c" font-family="monospace" font-size="8">ASIC #2</text>
  <circle cx="75" cy="75" r="3" fill="#ea580c"/>
  <circle cx="75" cy="95" r="2" fill="#ea580c" opacity="0.5"/>
  <circle cx="230" cy="75" r="3" fill="#ea580c"/>
  <circle cx="230" cy="95" r="2" fill="#ea580c" opacity="0.5"/>
  <rect x="60" y="150" width="1" height="45" fill="#334155"/>
  <rect x="100" y="150" width="1" height="45" fill="#334155"/>
  <rect x="210" y="150" width="1" height="45" fill="#334155"/>
  <rect x="250" y="150" width="1" height="45" fill="#334155"/>
  <text x="340" y="120" text-anchor="middle" fill="#ea580c" opacity="0.4" font-family="monospace" font-size="8">MAX</text>
  <rect x="40" y="240" width="320" height="28" rx="6" fill="#1e293b"/>
  <text x="200" y="258" text-anchor="middle" fill="#e2e8f0" font-family="Inter,sans-serif" font-weight="bold" font-size="14">XC Max</text>
</svg>
