<svg xmlns="http://www.w3.org/2000/svg" viewBox="0 0 400 300" fill="none">
  <rect width="400" height="300" rx="16" fill="#0f172a"/>
  <rect x="40" y="40" width="320" height="180" rx="8" fill="#1e293b" stroke="#334155" stroke-width="2"/>
  <rect x="60" y="60" width="140" height="80" rx="4" fill="#ef4444" opacity="0.1" stroke="#ef4444" stroke-width="1.5"/>
  <text x="130" y="95" text-anchor="middle" fill="#f87171" font-family="monospace" font-size="10">BM1372 ×1</text>
  <text x="130" y="112" text-anchor="middle" fill="#f87171" font-family="monospace" font-size="9">ASIC CHIP</text>
  <circle cx="95" cy="85" r="3" fill="#ef4444"/>
  <rect x="72" y="90" width="12" height="3" rx="1" fill="#334155"/>
  <rect x="72" y="82" width="18" height="2" rx="1" fill="#334155"/>
  <rect x="240" y="60" width="100" height="1" rx="0.5" fill="#334155"/>
  <rect x="240" y="80" width="80" height="1" rx="0.5" fill="#334155"/>
  <rect x="240" y="100" width="90" height="1" rx="0.5" fill="#334155"/>
  <rect x="240" y="120" width="70" height="1" rx="0.5" fill="#334155"/>
  <rect x="60" y="155" width="1" height="50" fill="#334155"/>
  <rect x="80" y="155" width="1" height="50" fill="#334155"/>
  <rect x="100" y="155" width="1" height="50" fill="#334155"/>
  <rect x="120" y="155" width="1" height="50" fill="#334155"/>
  <text x="340" y="120" text-anchor="middle" fill="#ef4444" opacity="0.4" font-family="monospace" font-size="8">ULTRA</text>
  <rect x="40" y="240" width="320" height="28" rx="6" fill="#1e293b"/>
  <text x="200" y="258" text-anchor="middle" fill="#e2e8f0" font-family="Inter,sans-serif" font-weight="bold" font-size="14">XC Ultra</text>
</svg>
